<svg width="129" height="51" viewBox="0 0 129 51" fill="none" xmlns="http://www.w3.org/2000/svg">
<path d="M27.26 50.84C23.48 50.84 19.9567 50.2333 16.69 49.02C13.47 47.76 10.67 45.9867 8.29 43.7C5.91 41.4133 4.04333 38.73 2.69 35.65C1.38333 32.57 0.73 29.1867 0.73 25.5C0.73 21.8133 1.38333 18.43 2.69 15.35C4.04333 12.27 5.91 9.58666 8.29 7.3C10.7167 5.01333 13.54 3.26333 16.76 2.05C19.98 0.789998 23.5033 0.159999 27.33 0.159999C31.5767 0.159999 35.4033 0.906666 38.81 2.4C42.2633 3.84666 45.1567 5.99333 47.49 8.84L40.21 15.56C38.53 13.6467 36.6633 12.2233 34.61 11.29C32.5567 10.31 30.3167 9.82 27.89 9.82C25.6033 9.82 23.5033 10.1933 21.59 10.94C19.6767 11.6867 18.02 12.76 16.62 14.16C15.22 15.56 14.1233 17.2167 13.33 19.13C12.5833 21.0433 12.21 23.1667 12.21 25.5C12.21 27.8333 12.5833 29.9567 13.33 31.87C14.1233 33.7833 15.22 35.44 16.62 36.84C18.02 38.24 19.6767 39.3133 21.59 40.06C23.5033 40.8067 25.6033 41.18 27.89 41.18C30.3167 41.18 32.5567 40.7133 34.61 39.78C36.6633 38.8 38.53 37.33 40.21 35.37L47.49 42.09C45.1567 44.9367 42.2633 47.1067 38.81 48.6C35.4033 50.0933 31.5533 50.84 27.26 50.84ZM65.5145 41.67V9.33H74.5445V41.67H65.5145ZM53.4045 29.77V21.23H86.7245V29.77H53.4045ZM107.692 41.67V9.33H116.722V41.67H107.692ZM95.5822 29.77V21.23H128.902V29.77H95.5822Z" fill="white"/>
</svg>
