<svg width="80" height="80" viewBox="0 0 80 80" fill="none" xmlns="http://www.w3.org/2000/svg">
<g clip-path="url(#clip0_140_241)">
<path d="M75.6557 6.73027V6.61328H75.2641H4.69673H4.3051V6.73027C1.99634 6.88897 0.273856 8.72583 0 10.9552V11.3477V57.8475C0 58.7492 0.234641 59.5092 0.626275 60.1938C1.52732 61.7803 2.85739 62.5819 4.69686 62.5819H30.4501V69.078H25.5579C24.3447 69.078 23.4054 70.0215 23.4054 71.2322C23.4054 72.443 24.3447 73.3864 25.5579 73.3864H54.4031C55.6163 73.3864 56.595 72.4428 56.595 71.2322C56.595 70.0214 55.6165 69.078 54.4031 69.078H49.511V62.5819H75.2641C77.1043 62.5819 78.4461 61.7803 79.3346 60.1938C79.7379 59.4758 80.0001 58.7075 80.0001 57.8475V11.3478V10.9554C79.7261 8.72583 77.8867 6.88897 75.6557 6.73027ZM75.6557 11.3478V57.8477C75.6557 58.1232 75.5387 58.2401 75.2641 58.2401H4.69673C4.42288 58.2401 4.3051 58.1232 4.3051 57.8477V11.3478V10.9554H75.6556L75.6557 11.3478Z" fill="white"/>
</g>
<defs>
<clipPath id="clip0_140_241">
<rect width="80" height="80" fill="white"/>
</clipPath>
</defs>
</svg>
