<svg width="110" height="117" viewBox="0 0 110 117" fill="none" xmlns="http://www.w3.org/2000/svg">
<path d="M28.25 2C33.2723 2 37.3437 6.07141 37.3438 11.0938C37.3438 16.1161 33.2723 20.1875 28.25 20.1875C23.2277 20.1875 19.1562 16.1161 19.1562 11.0938C19.1563 6.07141 23.2277 2 28.25 2Z" fill="white" stroke="white" stroke-width="4"/>
<path d="M4.74123 18.8672C4.74123 18.8672 11.609 19.0973 16.3635 20.4778C21.1181 21.8583 24.9525 25.1633 27.9859 26.23H44.0986V76.1589H32.2122C30.099 76.1589 26.9293 75.6987 22.9671 72.7076C19.005 69.7165 19.2691 63.7342 19.2691 63.7342V49.0086C19.2691 49.0086 19.2691 44.637 14.5145 42.5662C9.75996 40.4954 4.74123 40.0352 4.74123 40.0352V18.8672Z" fill="white" stroke="white" stroke-width="4"/>
<path d="M24.2881 39.1147V28.7608V19.5573C24.2881 19.5573 34.0614 18.867 40.1367 20.2474C46.212 21.6277 52.8156 26.9201 52.8156 26.9201C52.8156 26.9201 58.6268 22.088 63.9096 20.2474C69.1925 18.4067 80.0224 19.5573 80.0224 19.5573V38.8601C80.0224 38.8601 73.683 37.0439 68.1359 43.2563C64.5082 47.3191 63.4248 60.4356 63.3814 69.0261C63.3584 73.571 63.9096 76.849 63.9096 76.849H40.9291L41.4574 69.0261C41.4574 69.0261 41.9857 47.858 36.1746 43.2563C30.3634 38.6545 24.2881 39.1147 24.2881 39.1147Z" fill="white" stroke="#FF97CA" stroke-width="4"/>
<ellipse cx="52.023" cy="11.0938" rx="11.0938" ry="11.0938" fill="white"/>
<path d="M76.3242 26.23C79.3575 25.1633 83.1919 21.8583 87.9465 20.4778C92.7011 19.0973 99.5688 18.8672 99.5688 18.8672V40.0352C99.5688 40.0352 94.5501 40.4954 89.7955 42.5662C85.0409 44.637 85.0409 49.0086 85.0409 49.0086V63.7342C85.0409 63.7342 85.3051 69.7165 81.3429 72.7076C77.3808 75.6987 74.211 76.1589 72.0979 76.1589C69.9847 76.1589 60.2114 76.1589 60.2114 76.1589" stroke="white" stroke-width="4"/>
<path d="M75.7959 2C80.8182 2 84.8896 6.07141 84.8896 11.0938C84.8896 16.1161 80.8182 20.1875 75.7959 20.1875C70.7736 20.1875 66.7021 16.1161 66.7021 11.0938C66.7022 6.07141 70.7736 2 75.7959 2Z" stroke="white" stroke-width="4"/>
<path d="M12.8848 104.889C11.6895 105.938 9.93164 106.462 7.61133 106.462C5.29688 106.462 3.53906 105.938 2.33789 104.889C1.13672 103.834 0.536133 102.167 0.536133 99.8877C0.536133 97.6084 1.13672 95.9443 2.33789 94.8955C3.53906 93.8467 5.29688 93.3223 7.61133 93.3223C9.93164 93.3223 11.6895 93.8467 12.8848 94.8955C14.0859 95.9443 14.6865 97.6084 14.6865 99.8877C14.6865 102.167 14.0859 103.834 12.8848 104.889ZM10.4854 96.75C9.89355 96.0469 8.93555 95.6953 7.61133 95.6953C6.29297 95.6953 5.33496 96.0469 4.7373 96.75C4.14551 97.4531 3.84961 98.502 3.84961 99.8965C3.84961 101.285 4.14551 102.331 4.7373 103.034C5.33496 103.731 6.29297 104.08 7.61133 104.08C8.93555 104.08 9.89355 103.731 10.4854 103.034C11.0771 102.331 11.373 101.285 11.373 99.8965C11.373 98.502 11.0771 97.4531 10.4854 96.75ZM16.4971 105.381V94.4209C16.4971 94.1807 16.5762 93.9814 16.7344 93.8232C16.8926 93.665 17.0918 93.5859 17.332 93.5859H25.8223C26.0625 93.5859 26.2588 93.665 26.4111 93.8232C26.5693 93.9814 26.6484 94.1807 26.6484 94.4209V95.2471C26.6484 95.4873 26.5693 95.6865 26.4111 95.8447C26.2588 95.9971 26.0625 96.0732 25.8223 96.0732H19.8105V105.381C19.8105 105.609 19.7285 105.803 19.5645 105.961C19.4062 106.113 19.2129 106.189 18.9844 106.189H17.332C17.1035 106.189 16.9072 106.113 16.7432 105.961C16.5791 105.803 16.4971 105.609 16.4971 105.381ZM27.29 102.568C27.29 102.223 27.3926 101.977 27.5977 101.83C27.8027 101.678 28.002 101.602 28.1953 101.602H29.2324C29.7598 101.602 30.1816 101.924 30.498 102.568C30.8965 103.371 31.6143 103.775 32.6514 103.781H34.4004C35.5137 103.781 36.3193 103.579 36.8174 103.175C37.3213 102.771 37.5967 102.07 37.6436 101.074H32.9238C32.6953 101.074 32.499 100.995 32.335 100.837C32.1768 100.673 32.0977 100.477 32.0977 100.248V99.5098C32.0977 99.2812 32.1768 99.0879 32.335 98.9297C32.499 98.7656 32.6953 98.6836 32.9238 98.6836H37.6436C37.585 97.6992 37.3096 97.0078 36.8174 96.6094C36.3252 96.2051 35.5195 96.0029 34.4004 96.0029H32.8359C31.793 96.0029 31.0723 96.4043 30.6738 97.207C30.3633 97.8574 29.9443 98.1826 29.417 98.1826H28.3711C28.0957 98.1826 27.876 98.0801 27.7119 97.875C27.5537 97.6699 27.4746 97.4473 27.4746 97.207C27.4746 96.4512 27.7295 95.7861 28.2393 95.2119C28.749 94.6318 29.3818 94.2041 30.1377 93.9287C30.8936 93.6533 31.6904 93.5156 32.5283 93.5156H34.4883C36.6621 93.5156 38.291 94.0371 39.375 95.0801C40.4648 96.1172 41.0098 97.7227 41.0098 99.8965C41.0098 102.064 40.4648 103.667 39.375 104.704C38.291 105.741 36.6621 106.26 34.4883 106.26H32.3525C31.5146 106.26 30.7148 106.122 29.9531 105.847C29.1973 105.571 28.5645 105.146 28.0547 104.572C27.5449 103.992 27.29 103.324 27.29 102.568ZM48.4014 102.463C48.4014 100.828 49.1045 99.6885 50.5107 99.0439C49.9834 98.4697 49.7197 97.7842 49.7197 96.9873C49.7197 95.9678 50.127 95.1182 50.9414 94.4385C51.7559 93.7529 52.9043 93.4102 54.3867 93.4102C55.8691 93.4102 57.0352 93.668 57.8848 94.1836C58.7402 94.6992 59.168 95.4609 59.168 96.4688C59.168 96.627 59.1152 96.7588 59.0098 96.8643C58.9102 96.9639 58.7842 97.0137 58.6318 97.0137H57.4629C57.0645 97.0137 56.7275 96.7969 56.4521 96.3633C56.1064 95.8125 55.4268 95.5371 54.4131 95.5371C53.8975 95.5371 53.4961 95.6514 53.209 95.8799C52.9219 96.1025 52.7783 96.4219 52.7783 96.8379C52.7783 97.2539 52.9072 97.6436 53.165 98.0068C53.4229 98.3643 53.7979 98.751 54.29 99.167L57.3311 101.812L58.2012 100.573C58.4004 100.298 58.6377 100.251 58.9131 100.433L59.8711 101.074C60.0469 101.203 60.1348 101.335 60.1348 101.47C60.1348 101.599 60.0938 101.719 60.0117 101.83L58.957 103.342L61.207 105.363C61.3301 105.48 61.3916 105.586 61.3916 105.68C61.3916 106.02 61.2275 106.189 60.8994 106.189H58.8955C58.4385 106.189 58.0195 106.043 57.6387 105.75C57.5098 105.645 57.3311 105.486 57.1025 105.275C55.96 106.008 54.6475 106.371 53.165 106.365C51.6826 106.365 50.5166 106.02 49.667 105.328C48.8232 104.631 48.4014 103.676 48.4014 102.463ZM51.3545 102.463C51.3545 103.652 52.0752 104.247 53.5166 104.247C54.2373 104.247 54.8555 104.071 55.3711 103.72L52.2422 100.898C51.6504 101.186 51.3545 101.707 51.3545 102.463ZM68.9678 105.346V94.4033C68.9678 94.1748 69.0498 93.9814 69.2139 93.8232C69.3779 93.665 69.5742 93.5859 69.8027 93.5859H79.9365C80.165 93.5859 80.3584 93.668 80.5166 93.832C80.6807 93.9961 80.7627 94.1924 80.7627 94.4209V95.2471C80.7627 95.4756 80.6807 95.6719 80.5166 95.8359C80.3584 95.9941 80.165 96.0732 79.9365 96.0732H72.2812V98.6309H78.873C79.1016 98.6309 79.2949 98.7129 79.4531 98.877C79.6172 99.0352 79.6992 99.2285 79.6992 99.457V100.283C79.6992 100.512 79.6172 100.708 79.4531 100.872C79.2949 101.03 79.1016 101.109 78.873 101.109H72.2812V103.702H79.9189C80.1416 103.702 80.332 103.781 80.4902 103.939C80.6484 104.098 80.7275 104.291 80.7275 104.52V105.363C80.7275 105.592 80.6455 105.788 80.4814 105.952C80.3174 106.11 80.1211 106.189 79.8926 106.189H69.8027C69.5742 106.189 69.3779 106.11 69.2139 105.952C69.0498 105.788 68.9678 105.586 68.9678 105.346ZM82.3799 105.381V94.4209C82.3799 94.1807 82.459 93.9814 82.6172 93.8232C82.7754 93.665 82.9746 93.5859 83.2148 93.5859H91.7051C91.9453 93.5859 92.1416 93.665 92.2939 93.8232C92.4521 93.9814 92.5312 94.1807 92.5312 94.4209V95.2471C92.5312 95.4873 92.4521 95.6865 92.2939 95.8447C92.1416 95.9971 91.9453 96.0732 91.7051 96.0732H85.6934V105.381C85.6934 105.609 85.6113 105.803 85.4473 105.961C85.2891 106.113 85.0957 106.189 84.8672 106.189H83.2148C82.9863 106.189 82.79 106.113 82.626 105.961C82.4619 105.803 82.3799 105.609 82.3799 105.381ZM93.1729 102.568C93.1729 102.223 93.2754 101.977 93.4805 101.83C93.6855 101.678 93.8848 101.602 94.0781 101.602H95.1152C95.6426 101.602 96.0645 101.924 96.3809 102.568C96.7793 103.371 97.4971 103.775 98.5342 103.781H100.283C101.396 103.781 102.202 103.579 102.7 103.175C103.204 102.771 103.479 102.07 103.526 101.074H98.8066C98.5781 101.074 98.3818 100.995 98.2178 100.837C98.0596 100.673 97.9805 100.477 97.9805 100.248V99.5098C97.9805 99.2812 98.0596 99.0879 98.2178 98.9297C98.3818 98.7656 98.5781 98.6836 98.8066 98.6836H103.526C103.468 97.6992 103.192 97.0078 102.7 96.6094C102.208 96.2051 101.402 96.0029 100.283 96.0029H98.7188C97.6758 96.0029 96.9551 96.4043 96.5566 97.207C96.2461 97.8574 95.8271 98.1826 95.2998 98.1826H94.2539C93.9785 98.1826 93.7588 98.0801 93.5947 97.875C93.4365 97.6699 93.3574 97.4473 93.3574 97.207C93.3574 96.4512 93.6123 95.7861 94.1221 95.2119C94.6318 94.6318 95.2646 94.2041 96.0205 93.9287C96.7764 93.6533 97.5732 93.5156 98.4111 93.5156H100.371C102.545 93.5156 104.174 94.0371 105.258 95.0801C106.348 96.1172 106.893 97.7227 106.893 99.8965C106.893 102.064 106.348 103.667 105.258 104.704C104.174 105.741 102.545 106.26 100.371 106.26H98.2354C97.3975 106.26 96.5977 106.122 95.8359 105.847C95.0801 105.571 94.4473 105.146 93.9375 104.572C93.4277 103.992 93.1729 103.324 93.1729 102.568Z" fill="white"/>
</svg>
