<svg width="80" height="80" viewBox="0 0 80 80" fill="none" xmlns="http://www.w3.org/2000/svg">
<path fill-rule="evenodd" clip-rule="evenodd" d="M32.5 17.75H19.9645V51.0012C19.9645 59.2287 17.139 61.526 12.222 61.526C9.91773 61.526 7.84266 61.1315 6.22836 60.5773L4.92188 70.3112C7.22531 71.1034 10.7602 71.5781 13.5255 71.5781C24.8149 71.5781 32.5 66.2781 32.5 51.0827V17.75ZM59.8039 16.5C47.6766 16.5 40 23.3848 40 32.4851C40 40.322 45.9117 45.2288 54.5075 48.3936C60.7245 50.6091 63.1817 52.5885 63.1817 55.8325C63.1817 59.3934 60.3413 61.6888 54.9684 61.6888C49.9788 61.6888 45.449 60.0238 42.3789 58.3627V58.3595L40 68.2521C42.9188 69.9168 48.3688 71.5781 54.2766 71.5781C68.4781 71.5781 75.0781 63.9807 75.0781 55.0385C75.0781 47.4414 70.8566 42.5358 61.7237 39.052C54.9682 36.362 52.1289 34.8591 52.1289 31.4562C52.1289 28.7648 54.5856 26.3129 59.6523 26.3129C64.6394 26.3129 68.0686 27.9883 70.067 29.0185L73.062 19.0039C69.9299 17.6298 65.7116 16.5 59.8039 16.5Z" fill="white"/>
</svg>
