<svg width="70" height="70" viewBox="0 0 70 70" fill="none" xmlns="http://www.w3.org/2000/svg">
<g clip-path="url(#clip0_140_218)">
<path d="M14.9649 34.3647L33.3646 15.9679L27.3325 9.93584L18.8997 18.3687C18.7992 18.4694 18.6797 18.5493 18.5482 18.6039C18.4167 18.6584 18.2758 18.6865 18.1334 18.6865C17.9911 18.6865 17.8501 18.6584 17.7186 18.6039C17.5871 18.5493 17.4677 18.4694 17.3671 18.3687L15.8345 16.836C15.4107 16.4122 15.4107 15.7259 15.8345 15.3034L24.2673 6.8706L19.6681 2.27002C17.9741 0.576074 15.2288 0.576074 13.5349 2.27002L1.26983 14.5351C-0.422746 16.229 -0.424113 18.9743 1.26983 20.6683L14.9649 34.3647ZM68.0761 18.396C70.6409 15.8312 70.6396 11.6735 68.0761 9.10869L61.8896 2.92217C59.3247 0.357324 55.1657 0.357324 52.5995 2.92217L46.3077 9.2126L61.7843 24.6892L68.0761 18.396ZM43.2138 12.3079L2.60831 52.9079L0.0434651 67.597C-0.302433 69.578 1.42296 71.3034 3.40538 70.9548L18.0958 68.379L58.6903 27.7831L43.2138 12.3079ZM68.7296 51.3315L64.1304 46.7323L55.6976 55.1651C55.2737 55.589 54.5874 55.589 54.1649 55.1651L52.6323 53.6325C52.2099 53.2087 52.2099 52.5224 52.6323 52.0999L61.0651 43.6671L55.0304 37.6323L36.6308 56.0292L50.3314 69.7284C52.0253 71.4224 54.7706 71.4224 56.4646 69.7284L68.7296 57.4647C70.4235 55.7708 70.4235 53.0255 68.7296 51.3315Z" fill="white"/>
</g>
<defs>
<clipPath id="clip0_140_218">
<rect width="70" height="70" fill="white"/>
</clipPath>
</defs>
</svg>
