<svg width="100" height="100" viewBox="0 0 100 100" fill="none" xmlns="http://www.w3.org/2000/svg">
<path d="M39.9374 48.7167H57.9707C57.9707 48.7167 68.104 48.8792 68.104 38.925V22.4625C68.104 22.4625 69.6415 12.5 49.7332 12.5C30.6749 12.5 31.8624 20.7625 31.8624 20.7625L31.8874 29.325H50.0665V31.8958H24.6665C24.6665 31.8958 12.4707 30.5125 12.4707 49.7375C12.4707 68.9625 23.1165 68.2792 23.1165 68.2792H29.4665V59.3583C29.4665 59.3583 29.1207 48.7167 39.9374 48.7167ZM39.704 24.8C38.8366 24.8 38.0046 24.4554 37.3912 23.842C36.7778 23.2286 36.4332 22.3966 36.4332 21.5292C36.4332 20.6617 36.7778 19.8297 37.3912 19.2163C38.0046 18.6029 38.8366 18.2583 39.704 18.2583C40.5715 18.2583 41.4035 18.6029 42.0169 19.2163C42.6303 19.8297 42.9749 20.6617 42.9749 21.5292C42.9749 22.3966 42.6303 23.2286 42.0169 23.842C41.4035 24.4554 40.5715 24.8 39.704 24.8Z" fill="white"/>
<path d="M76.8832 31.3833H70.5332V40.3042C70.5332 40.3042 70.879 50.9458 60.0624 50.9458H42.029C42.029 50.9458 31.8957 50.7792 31.8957 60.7375V77.2C31.8957 77.2 30.3582 87.1625 50.2665 87.1625C69.3207 87.1625 68.1332 78.9 68.1332 78.9L68.1082 70.3417H49.929V67.7708H75.3332C75.3332 67.7708 87.529 69.1542 87.529 49.9292C87.529 30.7042 76.8832 31.3833 76.8832 31.3833ZM60.2957 74.8667C61.1632 74.8667 61.9951 75.2113 62.6085 75.8247C63.2219 76.4381 63.5665 77.27 63.5665 78.1375C63.5665 79.005 63.2219 79.8369 62.6085 80.4503C61.9951 81.0637 61.1632 81.4083 60.2957 81.4083C59.4282 81.4083 58.5963 81.0637 57.9829 80.4503C57.3695 79.8369 57.0249 79.005 57.0249 78.1375C57.0249 77.27 57.3695 76.4381 57.9829 75.8247C58.5963 75.2113 59.4282 74.8667 60.2957 74.8667Z" fill="white"/>
</svg>
