<svg width="55" height="55" viewBox="0 0 55 55" fill="none" xmlns="http://www.w3.org/2000/svg">
<circle cx="27.5" cy="27.5" r="27.5" fill="#BDC94D" fill-opacity="0.4"/>
<path d="M38.25 18.625H15.75C15.2527 18.625 14.7758 18.8225 14.4242 19.1742C14.0725 19.5258 13.875 20.0027 13.875 20.5V35.5C13.875 35.9973 14.0725 36.4742 14.4242 36.8258C14.7758 37.1775 15.2527 37.375 15.75 37.375H38.25C38.7473 37.375 39.2242 37.1775 39.5758 36.8258C39.9275 36.4742 40.125 35.9973 40.125 35.5V20.5C40.125 20.0027 39.9275 19.5258 39.5758 19.1742C39.2242 18.8225 38.7473 18.625 38.25 18.625ZM36.1875 20.5L27 26.8562L17.8125 20.5H36.1875ZM15.75 35.5V21.3531L26.4656 28.7687C26.6226 28.8776 26.809 28.936 27 28.936C27.191 28.936 27.3774 28.8776 27.5344 28.7687L38.25 21.3531V35.5H15.75Z" fill="#BDC94D"/>
</svg>
