<svg width="55" height="55" viewBox="0 0 55 55" fill="none" xmlns="http://www.w3.org/2000/svg">
<circle cx="27.5" cy="27.5" r="27.5" fill="#CA9DFD" fill-opacity="0.4"/>
<path fill-rule="evenodd" clip-rule="evenodd" d="M28 29.5C29.1935 29.5 30.3381 29.0259 31.182 28.182C32.0259 27.3381 32.5 26.1935 32.5 25C32.5 23.8065 32.0259 22.6619 31.182 21.818C30.3381 20.9741 29.1935 20.5 28 20.5C26.8065 20.5 25.6619 20.9741 24.818 21.818C23.9741 22.6619 23.5 23.8065 23.5 25C23.5 26.1935 23.9741 27.3381 24.818 28.182C25.6619 29.0259 26.8065 29.5 28 29.5ZM28 22C28.7956 22 29.5587 22.3161 30.1213 22.8787C30.6839 23.4413 31 24.2044 31 25C31 25.7956 30.6839 26.5587 30.1213 27.1213C29.5587 27.6839 28.7956 28 28 28C27.2044 28 26.4413 27.6839 25.8787 27.1213C25.3161 26.5587 25 25.7956 25 25C25 24.2044 25.3161 23.4413 25.8787 22.8787C26.4413 22.3161 27.2044 22 28 22Z" fill="#CA9DFD"/>
<path fill-rule="evenodd" clip-rule="evenodd" d="M17.5 25.1845C17.5 31.1875 23.8345 41.5 28 41.5C32.1655 41.5 38.5 31.1875 38.5 25.1845C38.5 19.2865 33.802 14.5 28 14.5C22.198 14.5 17.5 19.2865 17.5 25.1845ZM37 25.1845C37 30.4645 31.144 40 28 40C24.856 40 19 30.4645 19 25.1845C19 20.11 23.032 16 28 16C32.968 16 37 20.11 37 25.1845Z" fill="#CA9DFD"/>
</svg>
