<svg width="55" height="55" viewBox="0 0 55 55" fill="none" xmlns="http://www.w3.org/2000/svg">
<circle cx="27.5" cy="27.5" r="27.5" fill="#EE9C60" fill-opacity="0.4"/>
<path d="M27 15.5C20.1112 15.5 14.5 21.1112 14.5 28C14.5 34.8888 20.1112 40.5 27 40.5C33.8888 40.5 39.5 34.8888 39.5 28C39.5 21.1112 33.8888 15.5 27 15.5ZM27 18C32.5377 18 37 22.4623 37 28C37 33.5377 32.5377 38 27 38C21.4623 38 17 33.5377 17 28C17 22.4623 21.4623 18 27 18ZM25.75 20.5V28.5176L31.1162 33.8838L32.8838 32.1162L28.25 27.4824V20.5H25.75Z" fill="#EE9C60"/>
</svg>
