<svg width="55" height="55" viewBox="0 0 55 55" fill="none" xmlns="http://www.w3.org/2000/svg">
<circle cx="27.5" cy="27.5" r="27.5" fill="#FF97CA" fill-opacity="0.4"/>
<path d="M25.1923 20.7998L20.9636 15.9185C20.4761 15.356 19.5823 15.3585 19.0161 15.926L15.5386 19.4098C14.5036 20.446 14.2073 21.9848 14.8061 23.2185C18.3831 30.6248 24.3561 36.6062 31.7573 40.1935C32.9898 40.7923 34.5273 40.496 35.5623 39.4598L39.0723 35.9435C39.6411 35.3748 39.6423 34.476 39.0748 33.9885L34.1748 29.7823C33.6623 29.3423 32.8661 29.3998 32.3523 29.9148L30.6473 31.6223C30.56 31.7138 30.4451 31.7741 30.3202 31.794C30.1954 31.8138 30.0674 31.7922 29.9561 31.7323C27.1691 30.1274 24.8573 27.8126 23.2561 25.0235C23.1961 24.912 23.1744 24.7838 23.1942 24.6587C23.2141 24.5336 23.2745 24.4185 23.3661 24.331L25.0661 22.6298C25.5811 22.1123 25.6373 21.3135 25.1923 20.7998Z" stroke="#FF97CA" stroke-width="2" stroke-linecap="round" stroke-linejoin="round"/>
</svg>
