<svg width="55" height="55" viewBox="0 0 55 55" fill="none" xmlns="http://www.w3.org/2000/svg">
<path d="M21.748 12.5C16.9246 12.5 13 16.427 13 21.2516V33.7508C13 38.5748 16.927 42.5 21.7516 42.5H34.2508C39.0748 42.5 43 38.573 43 33.7484V21.248C43 16.4246 39.073 12.5 34.2484 12.5H21.748ZM37 17.3C37.6624 17.3 38.2 17.8376 38.2 18.5C38.2 19.1624 37.6624 19.7 37 19.7C36.3376 19.7 35.8 19.1624 35.8 18.5C35.8 17.8376 36.3376 17.3 37 17.3ZM28 19.7C32.302 19.7 35.8 23.198 35.8 27.5C35.8 31.802 32.3014 35.3 28 35.3C23.698 35.3 20.2 31.8014 20.2 27.5C20.2 23.1986 23.698 19.7 28 19.7ZM28 22.1C25.0174 22.1 22.6 24.5174 22.6 27.5C22.6 30.4826 25.0174 32.9 28 32.9C30.9826 32.9 33.4 30.4826 33.4 27.5C33.4 24.5174 30.9826 22.1 28 22.1Z" fill="#FF97CA"/>
<path d="M27.5 55C12.3122 55 0 42.6878 0 27.5C0 12.3122 12.3122 0 27.5 0C42.6878 0 55 12.3122 55 27.5C55 42.6878 42.6878 55 27.5 55Z" fill="#FF97CA" fill-opacity="0.4"/>
</svg>
