<svg width="55" height="55" viewBox="0 0 55 55" fill="none" xmlns="http://www.w3.org/2000/svg">
<path d="M28 12.5C36.2846 12.5 43 19.2154 43 27.5C43 35.7846 36.2846 42.5 28 42.5C19.7154 42.5 13 35.7846 13 27.5C13 19.2154 19.7154 12.5 28 12.5ZM33.1743 33.6141C33.4502 32.7676 34.7428 24.3311 34.9026 22.6687C34.9509 22.1652 34.7917 21.8307 34.48 21.6813C34.103 21.5 33.5448 21.5907 32.8972 21.8241C32.0089 22.1443 20.6533 26.9659 19.9972 27.245C19.375 27.5091 18.7867 27.7974 18.7867 28.2148C18.7867 28.5083 18.9609 28.6733 19.4409 28.8448C19.9404 29.0228 21.1985 29.4043 21.9413 29.6091C22.6567 29.8067 23.4713 29.6352 23.9278 29.3515C24.4117 29.0509 29.9963 25.3139 30.3974 24.9865C30.7978 24.6591 31.1174 25.0785 30.79 25.4065C30.4626 25.7339 26.6291 29.4546 26.1237 29.9698C25.51 30.5952 25.9457 31.2435 26.3572 31.503C26.8274 31.7991 30.2089 34.0674 30.7183 34.4313C31.2276 34.7952 31.7441 34.9602 32.217 34.9602C32.6898 34.9602 32.9389 34.3374 33.1743 33.6141Z" fill="#CA9DFD"/>
<circle cx="27.5" cy="27.5" r="27.5" transform="rotate(90 27.5 27.5)" fill="#CA9DFD" fill-opacity="0.4"/>
</svg>
