<svg width="55" height="55" viewBox="0 0 55 55" fill="none" xmlns="http://www.w3.org/2000/svg">
<circle cx="27.5" cy="27.5" r="27.5" transform="rotate(90 27.5 27.5)" fill="#BDC94D" fill-opacity="0.4"/>
<path d="M38 12.5H18C15.2387 12.5 13 14.7387 13 17.5V37.5C13 40.2612 15.2387 42.5 18 42.5H38C40.7612 42.5 43 40.2612 43 37.5V17.5C43 14.7387 40.7612 12.5 38 12.5ZM34.4519 34.375C33.69 31.9975 31.7913 30.1581 29.28 29.9081V34.375H28.8925C22.06 34.375 18.1625 29.6825 18 21.875H21.4231C21.5356 27.6056 24.0588 30.0331 26.0575 30.5338V21.875H29.2806V26.8175C31.2544 26.605 33.3281 24.3525 34.0275 21.875H37.2506C36.7137 24.9281 34.465 27.18 32.8656 28.1062C34.4644 28.8569 37.0256 30.8213 38 34.375H34.4519Z" fill="#BDC94D"/>
</svg>
