<svg width="80" height="80" viewBox="0 0 94 95" fill="none" xmlns="http://www.w3.org/2000/svg">
<path d="M42.264 89.3143C31.1875 89.3143 20.5647 84.9142 12.7324 77.0819C4.90012 69.2497 0.499999 58.6268 0.5 47.5503C0.500001 36.4738 4.90013 25.8509 12.7324 18.0187C20.5647 10.1864 31.1875 5.78627 42.264 5.78627" stroke="#1F1F1F"/>
<path d="M24.6009 69.9117V64.6117H25.5609V68.4717L28.8109 64.6117H29.6809V69.9117H28.7209V66.0517L25.4809 69.9117H24.6009ZM35.0643 69.0717L34.8443 69.3217V64.6117H35.8043V69.3217L35.5643 69.0717H38.3643L38.1343 69.3217V64.6117H39.0943V69.9117H31.5443V64.6117H32.5043V69.3217L32.2743 69.0717H35.0643ZM40.9583 69.9117V64.6117H41.9183V66.8617H44.9383V64.6117H45.8983V69.9117H44.9383V67.6917H41.9183V69.9117H40.9583ZM47.765 69.9117V64.6117H48.725V68.4717L51.975 64.6117H52.845V69.9117H51.885V66.0517L48.645 69.9117H47.765ZM58.5483 69.9117L56.4983 67.3317L57.2883 66.8517L59.6783 69.9117H58.5483ZM54.7083 69.9117V64.6117H55.6683V69.9117H54.7083ZM55.3783 67.6717V66.8517H57.1283V67.6717H55.3783ZM57.3683 67.3717L56.4783 67.2517L58.5083 64.6117H59.5383L57.3683 67.3717Z" fill="black"/>
<path d="M28.1147 53.9308V32.6198C28.1147 32.1754 28.2743 31.7937 28.5933 31.4747C28.9123 31.1557 29.2939 30.9962 29.7383 30.9962H32.917C33.3841 30.9962 33.7715 31.1557 34.0791 31.4747C34.3981 31.7937 34.5576 32.1754 34.5576 32.6198V53.8966C34.5576 54.3409 34.3924 54.7226 34.062 55.0416C33.743 55.3492 33.3613 55.5031 32.917 55.5031H29.7383C29.2939 55.5031 28.9123 55.3549 28.5933 55.0587C28.2743 54.7511 28.1147 54.3751 28.1147 53.9308ZM37.3604 34.2262V32.6198C37.3604 32.1526 37.5142 31.7653 37.8218 31.4576C38.1294 31.15 38.5168 30.9962 38.9839 30.9962H60.6709C61.138 30.9962 61.5254 31.15 61.833 31.4576C62.1406 31.7653 62.2944 32.1526 62.2944 32.6198V34.2262C62.2944 34.6933 62.1406 35.0807 61.833 35.3883C61.5254 35.6845 61.138 35.8326 60.6709 35.8326H53.0488V53.9308C53.0488 54.3751 52.8893 54.7511 52.5703 55.0587C52.2627 55.3549 51.8867 55.5031 51.4424 55.5031H48.2124C47.7681 55.5031 47.3864 55.3549 47.0674 55.0587C46.7598 54.7511 46.606 54.3751 46.606 53.9308V35.8326H38.9839C38.5168 35.8326 38.1294 35.6845 37.8218 35.3883C37.5142 35.0807 37.3604 34.6933 37.3604 34.2262Z" fill="#1F1F1F"/>
<path d="M48.9712 7.46981L48.7323 7.68707L49.0978 4.04134L50.0928 4.14108L49.7273 7.78681L49.5125 7.52407L51.614 7.73472L51.3592 7.95039L51.7246 4.30466L52.7196 4.40439L52.2935 8.65509L46.0289 8.02713L46.455 3.77644L47.45 3.87617L47.0846 7.5219L46.8777 7.25996L48.9712 7.46981Z" fill="#1F1F1F"/>
<path d="M57.0422 9.83495L56.0871 7.45461L57.0065 7.18138L58.1773 10.1423L57.0422 9.83495ZM54.0847 9.03418L55.2012 4.91065L56.1664 5.172L55.05 9.29553L54.0847 9.03418ZM55.2117 7.56567L55.4291 6.76259L56.8268 7.14102L56.6093 7.9441L55.2117 7.56567ZM56.9591 7.72385L56.0849 7.37112L58.1587 5.71143L59.1934 5.99159L56.9591 7.72385Z" fill="#1F1F1F"/>
<path d="M60.6036 11.1647C60.2005 10.9951 59.8778 10.7581 59.6356 10.4536C59.3954 10.1443 59.2485 9.79894 59.1949 9.41762C59.1412 9.03631 59.1961 8.65147 59.3595 8.26311C59.525 7.86984 59.7617 7.56153 60.0698 7.33819C60.3799 7.10994 60.7285 6.97597 61.1155 6.93629C61.5025 6.89661 61.8976 6.96158 62.3007 7.13119C62.7087 7.30287 63.0338 7.54092 63.2761 7.84536C63.5232 8.15186 63.6722 8.49228 63.723 8.86661C63.7787 9.24301 63.7228 9.63031 63.5552 10.0285C63.3918 10.4169 63.1551 10.7252 62.8449 10.9534C62.5397 11.1837 62.1901 11.3202 61.7961 11.3627C61.4091 11.4024 61.0116 11.3364 60.6036 11.1647ZM60.9356 10.3757C61.1617 10.4708 61.3839 10.5065 61.6023 10.4826C61.8206 10.4588 62.0182 10.3741 62.1951 10.2287C62.377 10.0853 62.5206 9.88828 62.6261 9.63757C62.7337 9.38194 62.7741 9.14147 62.7474 8.91614C62.7277 8.68797 62.65 8.48749 62.5144 8.31471C62.3788 8.14193 62.2004 8.009 61.9792 7.91592C61.7531 7.82077 61.5308 7.78513 61.3125 7.80898C61.0991 7.83491 60.9014 7.91955 60.7196 8.06292C60.5398 8.20137 60.3962 8.39841 60.2886 8.65404C60.1831 8.90475 60.1427 9.14523 60.1673 9.37547C60.192 9.60571 60.2696 9.80619 60.4003 9.9769C60.5359 10.1497 60.7143 10.2826 60.9356 10.3757Z" fill="#1F1F1F"/>
<path d="M63.3271 12.2064L63.7986 11.5095C63.8279 11.5332 63.855 11.5556 63.8797 11.5765C63.9045 11.5975 63.9283 11.6148 63.9512 11.6285C64.0932 11.7132 64.2291 11.7352 64.3589 11.6946C64.4886 11.654 64.6156 11.5714 64.7396 11.4466C64.871 11.3201 64.9982 11.1693 65.1212 10.9942C65.2515 10.8174 65.3773 10.6378 65.4984 10.4554L66.4044 9.07688L69.3726 10.847L67.1845 14.5161L66.3256 14.0039L68.2187 10.8295L68.2787 11.182L66.5334 10.1412L66.8624 10.0114L66.2365 10.9515C66.0288 11.2685 65.821 11.5544 65.6132 11.8093C65.4126 12.0622 65.2097 12.2672 65.0043 12.4242C64.8035 12.5839 64.5979 12.6786 64.3877 12.7085C64.1819 12.741 63.9714 12.6931 63.7561 12.5647C63.6874 12.5237 63.616 12.4718 63.5417 12.4089C63.472 12.3487 63.4005 12.2812 63.3271 12.2064Z" fill="#1F1F1F"/>
<path d="M70.5664 17.0193L71.1083 16.3464L71.1801 16.168L72.1284 14.9904C72.3124 14.7619 72.386 14.5302 72.3493 14.2952C72.316 14.056 72.1601 13.8244 71.8818 13.6002C71.6949 13.4497 71.4866 13.3299 71.257 13.2409C71.0316 13.1552 70.8147 13.1141 70.6065 13.1176L70.7578 12.3047C71.0468 12.3115 71.3406 12.3803 71.6392 12.5112C71.9453 12.6413 72.2313 12.8134 72.4971 13.0275C72.979 13.4155 73.2571 13.8312 73.3314 14.2746C73.4133 14.7172 73.2602 15.1793 72.8721 15.6612L71.3016 17.6114L70.5664 17.0193ZM69.4845 16.2199C69.2352 16.0192 69.0506 15.8021 68.9306 15.5685C68.8139 15.3307 68.7639 15.0952 68.7805 14.8621C68.8045 14.6281 68.8935 14.4156 69.0474 14.2245C69.1979 14.0376 69.377 13.9045 69.5847 13.8252C69.7965 13.7492 70.0393 13.7496 70.3131 13.8263C70.5869 13.903 70.892 14.0768 71.2284 14.3477L72.1942 15.1255L71.7777 15.6427L70.868 14.9101C70.6022 14.696 70.3885 14.5957 70.2268 14.6094C70.0685 14.6189 69.9392 14.6859 69.8389 14.8105C69.7251 14.9518 69.6909 15.1091 69.7361 15.2825C69.7814 15.4559 69.9037 15.6228 70.1031 15.7834C70.2942 15.9373 70.4996 16.0308 70.7194 16.064C70.9433 16.1006 71.1571 16.0604 71.3607 15.9437L71.1152 16.5163C70.8832 16.6514 70.6261 16.6942 70.3439 16.645C70.0659 16.5991 69.7794 16.4575 69.4845 16.2199Z" fill="#1F1F1F"/>
<path d="M74.6055 20.6852L77.9276 17.9994L80.5027 21.1847L77.1806 23.8705L76.5569 23.099L79.4 20.8006L79.3655 21.1268L77.751 19.1298L78.0773 19.1644L75.2342 21.4628L74.6055 20.6852Z" fill="#1F1F1F"/>
<path d="M79.5754 27.6183C79.4023 27.3179 79.3131 27.003 79.3079 26.6736C79.3054 26.3488 79.4002 26.0326 79.5922 25.7249C79.7915 25.4192 80.106 25.1425 80.5358 24.8949C80.9701 24.6445 81.3659 24.5088 81.723 24.4876C82.0828 24.4711 82.4003 24.5466 82.6754 24.7143C82.9552 24.8793 83.1857 25.1189 83.3667 25.4331C83.5771 25.7982 83.6837 26.1646 83.6864 26.5324C83.6917 26.9048 83.6 27.2531 83.4114 27.5773C83.2254 27.9061 82.9406 28.181 82.5571 28.4021C82.1736 28.6231 81.7906 28.733 81.4083 28.7318C81.0332 28.7325 80.6859 28.6372 80.3663 28.4459C80.0494 28.2592 79.7858 27.9833 79.5754 27.6183ZM77.0968 26.3136L82.1427 23.4054L82.6181 24.2303L81.7448 24.7336L80.7445 25.2731L79.8003 25.9097L77.5961 27.18L77.0968 26.3136ZM80.2611 27.0938C80.3809 27.3017 80.5337 27.4599 80.7193 27.5684C80.9076 27.6815 81.1175 27.7359 81.349 27.7318C81.5805 27.7276 81.8141 27.6576 82.0498 27.5218C82.2901 27.3833 82.4677 27.2163 82.5828 27.0207C82.7024 26.8225 82.7605 26.6135 82.7571 26.3939C82.7563 26.1789 82.696 25.9675 82.5761 25.7595C82.4563 25.5516 82.3022 25.3911 82.1139 25.278C81.9256 25.1649 81.7157 25.1104 81.4842 25.1146C81.2573 25.1161 81.0237 25.1861 80.7834 25.3246C80.5478 25.4604 80.3701 25.6274 80.2504 25.8257C80.1308 26.0239 80.0727 26.2328 80.0761 26.4525C80.0796 26.6721 80.1412 26.8858 80.2611 27.0938Z" fill="#1F1F1F"/>
<path d="M82.0911 32.7293C81.9313 32.3222 81.8759 31.9257 81.9249 31.5397C81.9789 31.1518 82.1237 30.8056 82.3594 30.5011C82.595 30.1966 82.909 29.9673 83.3012 29.8133C83.6983 29.6574 84.0844 29.6118 84.4593 29.6766C84.8392 29.7395 85.1784 29.8956 85.4769 30.1451C85.7754 30.3946 86.0046 30.7229 86.1644 31.13C86.3262 31.5421 86.3826 31.9411 86.3335 32.327C86.2865 32.7179 86.1466 33.0622 85.914 33.3598C85.6832 33.6624 85.3668 33.8926 84.9647 34.0505C84.5725 34.2044 84.1865 34.25 83.8066 34.1872C83.4286 34.1293 83.0869 33.9741 82.7815 33.7216C82.483 33.4721 82.2529 33.1413 82.0911 32.7293ZM82.8879 32.4164C82.9775 32.6448 83.1071 32.8288 83.2766 32.9686C83.446 33.1083 83.6446 33.1908 83.8722 33.216C84.1018 33.2462 84.3431 33.2116 84.5963 33.1122C84.8545 33.0108 85.0549 32.872 85.1977 32.6956C85.3474 32.5223 85.4367 32.3267 85.4659 32.109C85.495 31.8913 85.4657 31.6708 85.378 31.4474C85.2883 31.219 85.1588 31.035 84.9893 30.8952C84.8218 30.7605 84.6233 30.678 84.3937 30.6478C84.1691 30.6156 83.9277 30.6503 83.6695 30.7516C83.4164 30.851 83.2159 30.9899 83.0682 31.1682C82.9205 31.3465 82.8311 31.542 82.8 31.7548C82.7709 31.9725 82.8002 32.193 82.8879 32.4164Z" fill="#1F1F1F"/>
<path d="M83.382 36.1358L87.5217 35.0809L88.3316 38.2593L87.5099 38.4687L86.8896 36.0345L87.1639 36.204L83.6289 37.1048L83.382 36.1358Z" fill="#1F1F1F"/>
<path d="M84.6491 42.5864C84.6087 42.2421 84.6511 41.9176 84.7765 41.6129C84.9025 41.3135 85.1144 41.0604 85.4123 40.8537C85.7162 40.6515 86.1144 40.5216 86.607 40.4638C87.105 40.4053 87.5221 40.4369 87.8586 40.5586C88.1957 40.6855 88.4575 40.8803 88.6441 41.143C88.8359 41.4051 88.953 41.7162 88.9952 42.0764C89.0443 42.4949 88.9975 42.8736 88.8547 43.2126C88.7125 43.5568 88.4907 43.8406 88.1894 44.0639C87.8886 44.2925 87.5184 44.4326 87.0788 44.4842C86.6391 44.5358 86.2439 44.4855 85.8931 44.3333C85.5483 44.1859 85.2668 43.9611 85.0488 43.6591C84.8314 43.3624 84.6982 43.0049 84.6491 42.5864ZM82.8873 40.4089L88.6716 39.7302L88.7826 40.6757L87.7814 40.7932L86.6494 40.8938L85.5305 41.1056L83.0038 41.4021L82.8873 40.4089ZM85.4862 42.3754C85.5141 42.6138 85.592 42.8194 85.7197 42.9924C85.848 43.1707 86.0193 43.3036 86.2337 43.3912C86.448 43.4788 86.6902 43.5068 86.9604 43.4751C87.2358 43.4428 87.465 43.3595 87.6479 43.2253C87.8362 43.0904 87.9721 42.9214 88.0556 42.7183C88.1398 42.5205 88.1679 42.3024 88.14 42.064C88.112 41.8257 88.0339 41.6173 87.9055 41.4391C87.7772 41.2608 87.6059 41.1279 87.3916 41.0403C87.1825 40.952 86.9403 40.9241 86.6648 40.9564C86.3947 40.9881 86.1655 41.0714 85.9773 41.2062C85.789 41.3411 85.6531 41.5101 85.5696 41.7132C85.486 41.9163 85.4582 42.1371 85.4862 42.3754Z" fill="#1F1F1F"/>
<path d="M84.9708 49.0441L85.8343 49.0735L86.0201 49.0238L87.5312 49.0752C87.8244 49.0852 88.0539 49.0049 88.2198 48.8345C88.391 48.6642 88.4827 48.4005 88.4949 48.0434C88.503 47.8035 88.4738 47.565 88.4071 47.328C88.3403 47.0962 88.243 46.8981 88.1152 46.7337L88.8561 46.3667C89.0242 46.6019 89.1455 46.8781 89.2201 47.1955C89.2998 47.5184 89.3339 47.8504 89.3223 48.1916C89.3013 48.8099 89.1358 49.2819 88.8259 49.6075C88.5211 49.9387 88.0596 50.0937 87.4412 50.0727L84.9387 49.9876L84.9708 49.0441ZM84.9605 47.699C84.9714 47.3792 85.0342 47.1011 85.149 46.8649C85.2691 46.6289 85.4273 46.4475 85.6238 46.3207C85.8253 46.1995 86.0487 46.1431 86.2939 46.1514C86.5338 46.1596 86.7477 46.2229 86.9358 46.3414C87.1237 46.4652 87.2692 46.6595 87.3722 46.9245C87.4753 47.1895 87.5195 47.5379 87.5048 47.9697L87.4626 49.2089L86.799 49.1864L86.8387 48.019C86.8503 47.6779 86.8022 47.4468 86.6942 47.3257C86.5916 47.2048 86.4603 47.1417 86.3004 47.1362C86.1192 47.1301 85.9728 47.1971 85.8613 47.3374C85.7498 47.4777 85.6897 47.6758 85.681 47.9316C85.6727 48.1768 85.7212 48.3973 85.8266 48.593C85.9319 48.794 86.0923 48.9409 86.3079 49.0336L85.7026 49.1811C85.4553 49.0766 85.2666 48.8968 85.1366 48.6415C85.0063 48.3916 84.9476 48.0774 84.9605 47.699Z" fill="#1F1F1F"/>
<path d="M84.8563 51.9163L89.0515 52.7224L88.8538 53.7516L85.5517 54.8686L85.6302 54.4601L88.2666 56.8077L88.09 57.7269L83.8932 56.9287L84.0638 56.0409L87.2063 56.6447L87.074 56.7822L84.7754 54.7113L84.857 54.2871L87.8315 53.2212L87.8424 53.4188L84.6842 52.812L84.8563 51.9163Z" fill="#1F1F1F"/>
<path d="M83.5115 58.5248L87.5079 60.0342L87.1376 61.0146L83.6935 61.5524L83.8405 61.1632L86.0381 63.9259L85.7074 64.8015L81.7081 63.2996L82.0275 62.4539L85.0211 63.5846L84.8673 63.6975L82.9554 61.2651L83.108 60.861L86.2207 60.3177L86.1978 60.5143L83.1892 59.378L83.5115 58.5248Z" fill="#1F1F1F"/>
<path d="M81.0106 64.8556L84.7039 67.0026L84.2014 67.8671L81.7668 66.4519L83.0153 69.9074L82.557 70.6959L78.8637 68.5489L79.3662 67.6844L81.8008 69.0996L80.5483 65.651L81.0106 64.8556Z" fill="#1F1F1F"/>
<path d="M76.3383 71.9155C76.5568 71.6463 76.8189 71.4503 77.1246 71.3275C77.4269 71.2088 77.7561 71.1841 78.1121 71.2532C78.4689 71.3298 78.8399 71.5244 79.225 71.837C79.6143 72.1529 79.8828 72.4738 80.0304 72.7997C80.1747 73.1297 80.2178 73.4532 80.1598 73.7701C80.1059 74.0904 79.9647 74.3914 79.7362 74.673C79.4707 75.0001 79.1667 75.2308 78.8243 75.365C78.4785 75.5034 78.1204 75.5425 77.7502 75.4825C77.3766 75.4265 77.0179 75.2591 76.6742 74.9802C76.3305 74.7012 76.0908 74.383 75.955 74.0256C75.82 73.6756 75.7846 73.3172 75.8488 72.9503C75.9097 72.5876 76.0728 72.2426 76.3383 71.9155ZM76.6689 69.1341L81.1911 72.804L80.5912 73.5432L79.8085 72.9081L78.9466 72.1674L78.0141 71.5136L76.0387 69.9106L76.6689 69.1341ZM77.0736 72.3679C76.9223 72.5543 76.8293 72.7535 76.7945 72.9657C76.7563 73.182 76.7807 73.3975 76.8675 73.6122C76.9542 73.8268 77.1032 74.0199 77.3144 74.1913C77.5298 74.366 77.7494 74.4721 77.9732 74.5095C78.2011 74.5502 78.417 74.5297 78.6208 74.4478C78.8212 74.3701 78.9971 74.238 79.1483 74.0517C79.2996 73.8653 79.3943 73.664 79.4324 73.4477C79.4706 73.2314 79.4463 73.0159 79.3595 72.8012C79.2768 72.5899 79.1278 72.3969 78.9125 72.2221C78.7013 72.0507 78.4817 71.9446 78.2538 71.9039C78.0258 71.8632 77.8099 71.8837 77.6061 71.9656C77.4023 72.0475 77.2248 72.1816 77.0736 72.3679Z" fill="#1F1F1F"/>
<path d="M72.4155 76.1322C72.739 75.8379 73.0898 75.645 73.4679 75.5533C73.8496 75.4657 74.2246 75.4777 74.5931 75.5895C74.9616 75.7013 75.2876 75.913 75.5712 76.2247C75.8583 76.5403 76.0383 76.8848 76.1113 77.2583C76.1879 77.6356 76.1627 78.0082 76.0358 78.376C75.909 78.7438 75.6838 79.0748 75.3603 79.3691C75.0329 79.667 74.6801 79.8618 74.302 79.9534C73.92 80.0486 73.5485 80.0405 73.1875 79.929C72.8226 79.8212 72.4948 79.6075 72.2041 79.288C71.9206 78.9763 71.7405 78.6318 71.664 78.2544C71.5835 77.8806 71.6068 77.506 71.734 77.1307C71.8609 76.763 72.088 76.4301 72.4155 76.1322ZM72.9915 76.7654C72.8101 76.9305 72.6842 77.1171 72.614 77.3252C72.5437 77.5333 72.5373 77.7482 72.5948 77.9699C72.6484 78.1952 72.7667 78.4084 72.9497 78.6096C73.1363 78.8148 73.3375 78.9526 73.5531 79.0232C73.7684 79.1014 73.9829 79.1153 74.1967 79.065C74.4105 79.0147 74.6062 78.9087 74.7837 78.7472C74.9652 78.5821 75.091 78.3955 75.1613 78.1874C75.2276 77.9829 75.234 77.768 75.1804 77.5427C75.1305 77.3214 75.0122 77.1082 74.8256 76.903C74.6425 76.7018 74.4414 76.564 74.2221 76.4894C74.0029 76.4149 73.7884 76.401 73.5785 76.4477C73.3647 76.498 73.1691 76.6039 72.9915 76.7654Z" fill="#1F1F1F"/>
<path d="M69.7312 78.558L72.1344 82.09L70.4081 83.2646C69.9804 83.5556 69.5912 83.7042 69.2407 83.7105C68.8858 83.7198 68.6093 83.5789 68.4113 83.2879C68.2163 83.0012 68.1779 82.6984 68.2962 82.3792C68.4175 82.0645 68.6677 81.7781 69.047 81.5201L69.0873 81.7926C68.6595 82.0836 68.2881 82.2203 67.9728 82.2025C67.6561 82.1922 67.3958 82.0371 67.1918 81.7373C66.9788 81.4242 66.9291 81.1 67.0428 80.7646C67.1595 80.4336 67.456 80.1061 67.9322 79.7821L69.7312 78.558ZM69.3537 79.6954L68.4079 80.339C68.183 80.492 68.0372 80.6428 67.9706 80.7913C67.9069 80.9443 67.9261 81.0957 68.0281 81.2457C68.1361 81.4044 68.2685 81.4852 68.4254 81.4882C68.5822 81.4912 68.7731 81.4161 68.9979 81.2631L69.9702 80.6016L69.3537 79.6954ZM70.3437 81.1506L69.4773 81.7401C69.2656 81.8841 69.1324 82.0296 69.0776 82.1766C69.0213 82.3309 69.0412 82.4787 69.1372 82.6198C69.2362 82.7653 69.3649 82.8358 69.5231 82.8314C69.6769 82.8299 69.8597 82.7572 70.0713 82.6132L70.9378 82.0236L70.3437 81.1506Z" fill="#1F1F1F"/>
<path d="M62.8038 82.7504L63.1856 83.5255L63.3171 83.6658L63.9853 85.0222C64.1149 85.2853 64.2941 85.4497 64.5226 85.5155C64.7536 85.586 65.0293 85.5423 65.3499 85.3844C65.5652 85.2784 65.7616 85.14 65.9391 84.9693C66.1118 84.801 66.2405 84.6217 66.3251 84.4314L66.9985 84.9112C66.8705 85.1704 66.6843 85.4078 66.4397 85.6234C66.1927 85.8462 65.9161 86.033 65.6099 86.1838C65.0549 86.4572 64.5607 86.5342 64.1273 86.4148C63.6915 86.3025 63.3369 85.9688 63.0635 85.4138L61.957 83.1676L62.8038 82.7504ZM63.9847 82.1063C64.2717 81.9649 64.5465 81.889 64.8089 81.8786C65.0737 81.873 65.3083 81.9269 65.5128 82.0402C65.7148 82.1606 65.87 82.3309 65.9784 82.551C66.0845 82.7663 66.1297 82.9848 66.1141 83.2065C66.0937 83.4306 65.991 83.6506 65.8061 83.8666C65.6212 84.0825 65.3349 84.286 64.9474 84.4769L63.835 85.0249L63.5416 84.4292L64.5894 83.913C64.8956 83.7622 65.0765 83.6106 65.1323 83.4583C65.1904 83.3108 65.1841 83.1652 65.1134 83.0217C65.0333 82.859 64.9051 82.7617 64.7288 82.7296C64.5524 82.6976 64.3495 82.7381 64.1198 82.8512C63.8997 82.9597 63.7283 83.1065 63.6056 83.2919C63.4781 83.4795 63.4243 83.6903 63.4444 83.9242L63.0286 83.4602C63.0039 83.1929 63.0734 82.9417 63.237 82.7065C63.3958 82.4737 63.645 82.2736 63.9847 82.1063Z" fill="#1F1F1F"/>
<path d="M60.171 83.9908L61.4705 88.0603L60.5179 88.3645L59.9898 86.7108L57.9398 87.3654L58.4679 89.0191L57.5152 89.3233L56.2158 85.2537L57.1684 84.9495L57.6819 86.5576L59.7319 85.903L59.2184 84.295L60.171 83.9908Z" fill="#1F1F1F"/>
<path d="M54.3038 85.785L54.9524 90.0075L53.964 90.1593L53.5365 87.376L51.6314 90.5176L50.7299 90.6561L50.0813 86.4336L51.0697 86.2818L51.4973 89.0652L53.3945 85.9247L54.3038 85.785Z" fill="#1F1F1F"/>
<path d="M45.4935 86.6346L45.499 88.0906L45.3543 87.9231L46.6343 87.9183C47.221 87.916 47.6828 88.037 48.0197 88.281C48.3513 88.5304 48.518 88.8898 48.5198 89.3591C48.5217 89.8605 48.3471 90.2425 47.9961 90.5051C47.6398 90.7678 47.1656 90.9003 46.5736 90.9025L44.6136 90.9099L44.5975 86.638L45.4935 86.6346ZM48.5655 86.6229L47.4196 88.2593L46.3956 88.2632L47.4935 86.627L48.5655 86.6229ZM45.5002 88.4106L45.5075 90.3305L45.3625 90.0671L46.5385 90.0626C46.8478 90.0615 47.0876 90.0019 47.2578 89.8839C47.4227 89.7713 47.5047 89.587 47.5037 89.331C47.5019 88.851 47.189 88.6122 46.565 88.6145L45.357 88.6191L45.5002 88.4106Z" fill="#1F1F1F"/>
</svg>
