<svg width="100" height="102" viewBox="0 0 100 102" fill="none" xmlns="http://www.w3.org/2000/svg">
<path d="M45.4077 95.9951C33.4975 95.9951 22.075 91.2638 13.6532 82.8419C5.23134 74.4201 0.499999 62.9976 0.5 51.0874C0.500001 39.1771 5.23134 27.7546 13.6532 19.3328C22.075 10.9109 33.4975 6.1796 45.4077 6.1796" stroke="white"/>
<path d="M29.0965 74.1665V68.8665H30.0565V72.7265L33.3065 68.8665H34.1765V74.1665H33.2165V70.3065L29.9765 74.1665H29.0965ZM39.5599 73.3265L39.3399 73.5765V68.8665H40.2999V73.5765L40.0599 73.3265H42.8599L42.6299 73.5765V68.8665H43.5899V74.1665H36.0399V68.8665H36.9999V73.5765L36.7699 73.3265H39.5599ZM45.4539 74.1665V68.8665H46.4139V71.1165H49.4339V68.8665H50.3939V74.1665H49.4339V71.9465H46.4139V74.1665H45.4539ZM52.2606 74.1665V68.8665H53.2206V72.7265L56.4706 68.8665H57.3406V74.1665H56.3806V70.3065L53.1406 74.1665H52.2606ZM63.0439 74.1665L60.9939 71.5865L61.7839 71.1065L64.1739 74.1665H63.0439ZM59.2039 74.1665V68.8665H60.1639V74.1665H59.2039ZM59.8739 71.9265V71.1065H61.6239V71.9265H59.8739ZM61.8639 71.6265L60.9739 71.5065L63.0039 68.8665H64.0339L61.8639 71.6265Z" fill="white"/>
<path d="M31.7773 54.9277V33.6167C31.7773 33.1724 31.9368 32.7907 32.2559 32.4717C32.5749 32.1527 32.9565 31.9932 33.4009 31.9932H36.5796C37.0467 31.9932 37.4341 32.1527 37.7417 32.4717C38.0607 32.7907 38.2202 33.1724 38.2202 33.6167V54.8936C38.2202 55.3379 38.055 55.7196 37.7246 56.0386C37.4056 56.3462 37.0239 56.5 36.5796 56.5H33.4009C32.9565 56.5 32.5749 56.3519 32.2559 56.0557C31.9368 55.748 31.7773 55.3721 31.7773 54.9277ZM41.0229 35.2231V33.6167C41.0229 33.1496 41.1768 32.7622 41.4844 32.4546C41.792 32.147 42.1794 31.9932 42.6465 31.9932H64.3335C64.8006 31.9932 65.188 32.147 65.4956 32.4546C65.8032 32.7622 65.957 33.1496 65.957 33.6167V35.2231C65.957 35.6903 65.8032 36.0776 65.4956 36.3853C65.188 36.6815 64.8006 36.8296 64.3335 36.8296H56.7114V54.9277C56.7114 55.3721 56.5519 55.748 56.2329 56.0557C55.9253 56.3519 55.5493 56.5 55.105 56.5H51.875C51.4307 56.5 51.049 56.3519 50.73 56.0557C50.4224 55.748 50.2686 55.3721 50.2686 54.9277V36.8296H42.6465C42.1794 36.8296 41.792 36.6815 41.4844 36.3853C41.1768 36.0776 41.0229 35.6903 41.0229 35.2231Z" fill="white"/>
<path d="M52.4043 7.46981L52.1654 7.68707L52.5309 4.04134L53.5259 4.14108L53.1605 7.78681L52.9456 7.52407L55.0471 7.73472L54.7923 7.95039L55.1577 4.30466L56.1527 4.40439L55.7266 8.65509L49.462 8.02713L49.8881 3.77644L50.8831 3.87617L50.5177 7.5219L50.3108 7.25996L52.4043 7.46981Z" fill="white"/>
<path d="M61.1726 9.91955L60.2175 7.5392L61.1369 7.26598L62.3077 10.2269L61.1726 9.91955ZM58.2151 9.11877L59.3316 4.99525L60.2968 5.2566L59.1803 9.38012L58.2151 9.11877ZM59.342 7.65026L59.5595 6.84718L60.9572 7.22561L60.7397 8.0287L59.342 7.65026ZM61.0894 7.80844L60.2152 7.45571L62.2891 5.79602L63.3238 6.07619L61.0894 7.80844Z" fill="white"/>
<path d="M65.167 11.3684C64.7639 11.1988 64.4413 10.9617 64.1991 10.6573C63.9589 10.3479 63.812 10.0026 63.7584 9.6213C63.7047 9.23998 63.7596 8.85514 63.923 8.46679C64.0885 8.07351 64.3252 7.76521 64.6333 7.54187C64.9434 7.31361 65.292 7.17965 65.679 7.13997C66.066 7.10029 66.4611 7.16525 66.8642 7.33486C67.2722 7.50654 67.5973 7.7446 67.8395 8.04903C68.0867 8.35554 68.2357 8.69595 68.2865 9.07029C68.3422 9.44669 68.2863 9.83398 68.1187 10.2322C67.9553 10.6205 67.7185 10.9288 67.4084 11.1571C67.1032 11.3874 66.7536 11.5238 66.3596 11.5664C65.9726 11.606 65.5751 11.54 65.167 11.3684ZM65.499 10.5794C65.7252 10.6745 65.9474 10.7102 66.1657 10.6863C66.3841 10.6624 66.5817 10.5778 66.7586 10.4324C66.9405 10.289 67.0841 10.092 67.1896 9.84124C67.2972 9.58562 67.3376 9.34514 67.3109 9.11981C67.2912 8.89164 67.2135 8.69116 67.0779 8.51838C66.9423 8.3456 66.7639 8.21267 66.5427 8.1196C66.3165 8.02445 66.0943 7.9888 65.876 8.01266C65.6625 8.03858 65.4649 8.12323 65.2831 8.2666C65.1033 8.40505 64.9596 8.60209 64.8521 8.85772C64.7466 9.10843 64.7062 9.3489 64.7308 9.57914C64.7554 9.80938 64.8331 10.0099 64.9638 10.1806C65.0994 10.3534 65.2778 10.4863 65.499 10.5794Z" fill="white"/>
<path d="M68.3388 12.602L68.8103 11.9052C68.8397 11.9289 68.8667 11.9512 68.8914 11.9722C68.9162 11.9931 68.94 12.0105 68.9629 12.0241C69.1049 12.1088 69.2408 12.1308 69.3706 12.0903C69.5004 12.0497 69.6273 11.967 69.7513 11.8423C69.8827 11.7157 70.0099 11.5649 70.1329 11.3899C70.2632 11.213 70.389 11.0334 70.5101 10.851L71.4161 9.47251L74.3843 11.2427L72.1962 14.9117L71.3373 14.3995L73.2304 11.2252L73.2904 11.5776L71.5452 10.5368L71.8741 10.407L71.2482 11.3471C71.0405 11.6641 70.8328 11.9501 70.6249 12.2049C70.4243 12.4579 70.2214 12.6628 70.016 12.8198C69.8152 12.9795 69.6097 13.0743 69.3994 13.1041C69.1937 13.1366 68.9832 13.0887 68.7679 12.9603C68.6992 12.9194 68.6277 12.8674 68.5534 12.8045C68.4837 12.7443 68.4122 12.6768 68.3388 12.602Z" fill="white"/>
<path d="M75.9995 17.6696L76.5414 16.9967L76.6132 16.8182L77.5615 15.6406C77.7455 15.4122 77.8192 15.1804 77.7824 14.9454C77.7491 14.7063 77.5932 14.4746 77.3149 14.2505C77.128 14.1 76.9197 13.9802 76.6901 13.8911C76.4647 13.8055 76.2478 13.7644 76.0396 13.7678L76.1909 12.955C76.4799 12.9617 76.7737 13.0306 77.0723 13.1615C77.3784 13.2916 77.6644 13.4637 77.9302 13.6778C78.4121 14.0658 78.6902 14.4815 78.7645 14.9249C78.8464 15.3674 78.6933 15.8296 78.3053 16.3115L76.7347 18.2617L75.9995 17.6696ZM74.9176 16.8702C74.6683 16.6695 74.4837 16.4523 74.3637 16.2187C74.247 15.981 74.197 15.7455 74.2136 15.5123C74.2376 15.2784 74.3266 15.0658 74.4805 14.8748C74.631 14.6878 74.8101 14.5547 75.0178 14.4754C75.2296 14.3995 75.4724 14.3999 75.7462 14.4766C76.02 14.5532 76.3251 14.7271 76.6616 14.998L77.6273 15.7758L77.2108 16.2929L76.3012 15.5603C76.0353 15.3462 75.8216 15.246 75.6599 15.2596C75.5017 15.2691 75.3723 15.3362 75.272 15.4608C75.1582 15.602 75.124 15.7593 75.1692 15.9327C75.2145 16.1061 75.3368 16.2731 75.5362 16.4337C75.7273 16.5876 75.9327 16.6811 76.1525 16.7143C76.3764 16.7508 76.5902 16.7107 76.7938 16.5939L76.5483 17.1666C76.3163 17.3016 76.0592 17.3445 75.777 17.2953C75.499 17.2494 75.2125 17.1077 74.9176 16.8702Z" fill="white"/>
<path d="M80.5859 21.8108L83.9081 19.1251L86.4832 22.3104L83.161 24.9961L82.5374 24.2247L85.3805 21.9262L85.3459 22.2525L83.7315 20.2555L84.0578 20.29L81.2146 22.5885L80.5859 21.8108Z" fill="white"/>
<path d="M85.9006 29.1771C85.7275 28.8767 85.6383 28.5619 85.6331 28.2324C85.6306 27.9076 85.7254 27.5914 85.9174 27.2837C86.1167 26.9781 86.4312 26.7014 86.861 26.4537C87.2953 26.2034 87.6911 26.0676 88.0482 26.0464C88.408 26.0299 88.7255 26.1055 89.0006 26.2731C89.2804 26.4381 89.5108 26.6777 89.6919 26.992C89.9023 27.357 90.0089 27.7234 90.0116 28.0912C90.0169 28.4636 89.9252 28.8119 89.7366 29.1361C89.5506 29.4649 89.2658 29.7398 88.8823 29.9609C88.4988 30.1819 88.1158 30.2918 87.7335 30.2906C87.3584 30.2913 87.0111 30.196 86.6915 30.0047C86.3746 29.818 86.111 29.5421 85.9006 29.1771ZM83.422 27.8725L88.4679 24.9643L88.9433 25.7891L88.07 26.2924L87.0697 26.832L86.1254 27.4685L83.9213 28.7389L83.422 27.8725ZM86.5863 28.6526C86.7061 28.8606 86.8589 29.0188 87.0445 29.1272C87.2328 29.2403 87.4427 29.2948 87.6742 29.2906C87.9057 29.2864 88.1393 29.2164 88.375 29.0806C88.6152 28.9421 88.7929 28.7751 88.908 28.5795C89.0276 28.3813 89.0857 28.1724 89.0823 27.9528C89.0815 27.7378 89.0211 27.5263 88.9013 27.3184C88.7815 27.1104 88.6274 26.9499 88.4391 26.8368C88.2508 26.7237 88.0409 26.6693 87.8094 26.6734C87.5825 26.6749 87.3489 26.7449 87.1086 26.8834C86.873 27.0192 86.6953 27.1863 86.5756 27.3845C86.456 27.5828 86.3979 27.7917 86.4013 28.0113C86.4048 28.2309 86.4664 28.4447 86.5863 28.6526Z" fill="white"/>
<path d="M88.6848 34.7667C88.525 34.3596 88.4696 33.9631 88.5186 33.5772C88.5726 33.1893 88.7174 32.8431 88.9531 32.5386C89.1888 32.234 89.5027 32.0048 89.8949 31.8508C90.2921 31.6949 90.6781 31.6493 91.0531 31.7141C91.433 31.7769 91.7722 31.9331 92.0707 32.1826C92.3692 32.4321 92.5983 32.7604 92.7582 33.1675C92.9199 33.5795 92.9763 33.9785 92.9273 34.3645C92.8802 34.7554 92.7404 35.0996 92.5077 35.3973C92.277 35.6998 91.9606 35.9301 91.5585 36.0879C91.1663 36.2419 90.7802 36.2875 90.4003 36.2247C90.0223 36.1668 89.6807 36.0116 89.3753 35.7591C89.0768 35.5096 88.8466 35.1788 88.6848 34.7667ZM89.4816 34.4539C89.5713 34.6823 89.7008 34.8663 89.8703 35.0061C90.0398 35.1458 90.2383 35.2283 90.4659 35.2535C90.6955 35.2837 90.9369 35.2491 91.1901 35.1497C91.4482 35.0483 91.6487 34.9095 91.7914 34.7331C91.9411 34.5597 92.0305 34.3642 92.0596 34.1465C92.0887 33.9288 92.0594 33.7082 91.9717 33.4848C91.8821 33.2565 91.7525 33.0724 91.5831 32.9327C91.4156 32.7979 91.217 32.7154 90.9874 32.6853C90.7628 32.6531 90.5214 32.6877 90.2633 32.7891C90.0101 32.8885 89.8096 33.0273 89.6619 33.2057C89.5142 33.384 89.4248 33.5795 89.3938 33.7923C89.3646 34.01 89.3939 34.2305 89.4816 34.4539Z" fill="white"/>
<path d="M90.1486 38.6286L94.2883 37.5737L95.0982 40.7521L94.2765 40.9616L93.6562 38.5273L93.9305 38.6968L90.3955 39.5977L90.1486 38.6286Z" fill="white"/>
<path d="M91.5143 45.4596C91.4739 45.1153 91.5164 44.7908 91.6417 44.4861C91.7677 44.1867 91.9796 43.9336 92.2776 43.7268C92.5814 43.5247 92.9797 43.3947 93.4723 43.3369C93.9702 43.2785 94.3874 43.3101 94.7238 43.4317C95.0609 43.5586 95.3228 43.7535 95.5093 44.0162C95.7012 44.2783 95.8182 44.5894 95.8605 44.9496C95.9096 45.3681 95.8627 45.7468 95.7199 46.0857C95.5777 46.43 95.356 46.7138 95.0546 46.9371C94.7539 47.1657 94.3837 47.3058 93.944 47.3574C93.5044 47.4089 93.1091 47.3587 92.7584 47.2065C92.4135 47.059 92.132 46.8343 91.914 46.5323C91.6966 46.2356 91.5634 45.878 91.5143 45.4596ZM89.7525 43.2821L95.5368 42.6033L95.6478 43.5489L94.6467 43.6663L93.5147 43.7669L92.3957 43.9788L89.8691 44.2752L89.7525 43.2821ZM92.3514 45.2486C92.3794 45.4869 92.4572 45.6926 92.5849 45.8656C92.7132 46.0438 92.8845 46.1768 93.0989 46.2644C93.3132 46.352 93.5555 46.38 93.8256 46.3483C94.1011 46.316 94.3302 46.2327 94.5132 46.0984C94.7014 45.9636 94.8373 45.7946 94.9209 45.5915C95.0051 45.3937 95.0332 45.1756 95.0052 44.9372C94.9772 44.6988 94.8991 44.4905 94.7708 44.3123C94.6425 44.134 94.4711 44.0011 94.2568 43.9134C94.0478 43.8252 93.8055 43.7972 93.5301 43.8296C93.2599 43.8613 93.0307 43.9445 92.8425 44.0794C92.6543 44.2142 92.5184 44.3832 92.4348 44.5864C92.3512 44.7895 92.3234 45.0102 92.3514 45.2486Z" fill="white"/>
<path d="M91.8936 52.4696L92.7571 52.499L92.9429 52.4493L94.4541 52.5007C94.7472 52.5106 94.9768 52.4304 95.1426 52.2599C95.3139 52.0897 95.4056 51.826 95.4177 51.4688C95.4259 51.229 95.3966 50.9905 95.33 50.7534C95.2632 50.5217 95.1658 50.3236 95.038 50.1592L95.7789 49.7921C95.947 50.0273 96.0684 50.3036 96.143 50.621C96.2227 50.9439 96.2568 51.2759 96.2451 51.6171C96.2241 52.2354 96.0586 52.7073 95.7487 53.033C95.4439 53.3642 94.9824 53.5192 94.3641 53.4982L91.8615 53.413L91.8936 52.4696ZM91.8834 51.1245C91.8943 50.8046 91.9571 50.5266 92.0718 50.2904C92.1919 50.0543 92.3502 49.8729 92.5466 49.7462C92.7482 49.625 92.9716 49.5686 93.2168 49.5769C93.4566 49.5851 93.6706 49.6484 93.8587 49.7668C94.0466 49.8906 94.1921 50.085 94.2951 50.35C94.3982 50.615 94.4423 50.9634 94.4276 51.3951L94.3855 52.6344L93.7219 52.6118L93.7616 51.4445C93.7732 51.1034 93.725 50.8723 93.6171 50.7512C93.5145 50.6303 93.3832 50.5671 93.2233 50.5617C93.0421 50.5555 92.8957 50.6226 92.7842 50.7629C92.6727 50.9032 92.6126 51.1012 92.6039 51.3571C92.5955 51.6023 92.6441 51.8227 92.7495 52.0184C92.8547 52.2195 93.0151 52.3663 93.2308 52.459L92.6254 52.6065C92.3782 52.5021 92.1895 52.3222 92.0594 52.067C91.9292 51.8171 91.8705 51.5029 91.8834 51.1245Z" fill="white"/>
<path d="M91.7615 55.8409L95.9568 56.647L95.7591 57.6761L92.457 58.7932L92.5355 58.3846L95.1719 60.7322L94.9953 61.6514L90.7985 60.8532L90.9691 59.9655L94.1116 60.5692L93.9793 60.7068L91.6807 58.6359L91.7622 58.2116L94.7368 57.1457L94.7477 57.3433L91.5895 56.7365L91.7615 55.8409Z" fill="white"/>
<path d="M90.2976 63.0418L94.2941 64.5512L93.9238 65.5316L90.4796 66.0694L90.6266 65.6803L92.8242 68.4429L92.4935 69.3185L88.4942 67.8167L88.8136 66.971L91.8073 68.1016L91.6534 68.2145L89.7415 65.7821L89.8942 65.378L93.0069 64.8347L92.9839 65.0313L89.9754 63.895L90.2976 63.0418Z" fill="white"/>
<path d="M87.5756 69.9354L91.2689 72.0824L90.7663 72.9469L88.3318 71.5317L89.5802 74.9872L89.1219 75.7757L85.4286 73.6287L85.9312 72.7642L88.3657 74.1794L87.1132 70.7308L87.5756 69.9354Z" fill="white"/>
<path d="M82.6245 77.4667C82.8429 77.1975 83.105 77.0015 83.4107 76.8787C83.7131 76.7601 84.0423 76.7353 84.3983 76.8044C84.7551 76.881 85.126 77.0756 85.5112 77.3882C85.9004 77.7041 86.1689 78.025 86.3166 78.3509C86.4608 78.6809 86.504 79.0044 86.446 79.3213C86.3921 79.6416 86.2509 79.9426 86.0223 80.2242C85.7568 80.5514 85.4529 80.782 85.1104 80.9162C84.7646 81.0546 84.4066 81.0937 84.0363 81.0337C83.6627 80.9777 83.3041 80.8103 82.9604 80.5314C82.6166 80.2524 82.3769 79.9342 82.2411 79.5768C82.1061 79.2268 82.0707 78.8684 82.1349 78.5015C82.1958 78.1388 82.359 77.7938 82.6245 77.4667ZM82.955 74.6853L87.4772 78.3552L86.8773 79.0945L86.0947 78.4593L85.2327 77.7186L84.3002 77.0649L82.3249 75.4618L82.955 74.6853ZM83.3597 77.9191C83.2085 78.1055 83.1154 78.3047 83.0806 78.5169C83.0425 78.7332 83.0668 78.9487 83.1536 79.1634C83.2404 79.378 83.3894 79.5711 83.6006 79.7425C83.8159 79.9172 84.0355 80.0233 84.2593 80.0607C84.4872 80.1014 84.7031 80.0809 84.9069 79.999C85.1074 79.9213 85.2832 79.7892 85.4345 79.6029C85.5857 79.4165 85.6804 79.2152 85.7185 78.9989C85.7567 78.7826 85.7324 78.5671 85.6456 78.3524C85.563 78.1411 85.414 77.9481 85.1986 77.7733C84.9874 77.6019 84.7678 77.4958 84.5399 77.4551C84.312 77.4144 84.0961 77.4349 83.8923 77.5168C83.6885 77.5987 83.5109 77.7328 83.3597 77.9191Z" fill="white"/>
<path d="M78.3471 82.1095C78.6706 81.8152 79.0214 81.6223 79.3995 81.5306C79.7812 81.443 80.1563 81.455 80.5248 81.5668C80.8933 81.6786 81.2193 81.8903 81.5028 82.202C81.7899 82.5176 81.97 82.8621 82.0429 83.2356C82.1195 83.6129 82.0943 83.9855 81.9675 84.3533C81.8406 84.7211 81.6154 85.0521 81.2919 85.3464C80.9645 85.6443 80.6117 85.8391 80.2336 85.9307C79.8516 86.0259 79.4801 86.0178 79.1191 85.9063C78.7542 85.7985 78.4264 85.5848 78.1357 85.2652C77.8522 84.9536 77.6721 84.6091 77.5956 84.2317C77.5151 83.8579 77.5385 83.4833 77.6657 83.108C77.7925 82.7402 78.0197 82.4074 78.3471 82.1095ZM78.9232 82.7427C78.7417 82.9078 78.6158 83.0944 78.5456 83.3025C78.4754 83.5106 78.469 83.7255 78.5265 83.9472C78.58 84.1725 78.6983 84.3857 78.8813 84.5869C79.068 84.7921 79.2691 84.9299 79.4847 85.0005C79.7 85.0787 79.9146 85.0926 80.1284 85.0423C80.3422 84.992 80.5378 84.886 80.7154 84.7245C80.8968 84.5594 81.0227 84.3728 81.0929 84.1647C81.1592 83.9602 81.1656 83.7453 81.1121 83.52C81.0621 83.2987 80.9438 83.0855 80.7572 82.8803C80.5742 82.6791 80.373 82.5413 80.1538 82.4667C79.9346 82.3922 79.72 82.3783 79.5102 82.425C79.2964 82.4753 79.1007 82.5812 78.9232 82.7427Z" fill="white"/>
<path d="M75.2942 84.8654L77.6974 88.3974L75.9711 89.5719C75.5434 89.863 75.1542 90.0116 74.8037 90.0179C74.4488 90.0271 74.1723 89.8863 73.9743 89.5952C73.7793 89.3086 73.7409 89.0057 73.8592 88.6866C73.9805 88.3718 74.2307 88.0854 74.6099 87.8274L74.6502 88.1C74.2225 88.391 73.851 88.5276 73.5358 88.5099C73.2191 88.4996 72.9588 88.3445 72.7548 88.0446C72.5418 87.7316 72.4921 87.4073 72.6058 87.072C72.7225 86.741 73.019 86.4135 73.4952 86.0895L75.2942 84.8654ZM74.9167 86.0028L73.9708 86.6464C73.746 86.7994 73.6002 86.9501 73.5336 87.0987C73.4699 87.2517 73.4891 87.4031 73.5911 87.553C73.6991 87.7118 73.8315 87.7926 73.9884 87.7956C74.1452 87.7985 74.336 87.7235 74.5609 87.5705L75.5332 86.909L74.9167 86.0028ZM75.9067 87.4579L75.0403 88.0475C74.8286 88.1915 74.6954 88.337 74.6406 88.4839C74.5843 88.6383 74.6042 88.786 74.7002 88.9271C74.7992 89.0727 74.9278 89.1432 75.0861 89.1387C75.2399 89.1373 75.4227 89.0646 75.6343 88.9205L76.5008 88.331L75.9067 87.4579Z" fill="white"/>
<path d="M67.9556 89.3324L68.3375 90.1074L68.469 90.2477L69.1372 91.6041C69.2668 91.8672 69.4459 92.0317 69.6745 92.0974C69.9054 92.1679 70.1812 92.1243 70.5017 91.9663C70.717 91.8603 70.9134 91.7219 71.091 91.5512C71.2637 91.3829 71.3923 91.2036 71.477 91.0133L72.1503 91.4931C72.0224 91.7523 71.8361 91.9897 71.5915 92.2053C71.3446 92.4281 71.068 92.6149 70.7618 92.7657C70.2068 93.0391 69.7126 93.1161 69.2792 92.9967C68.8434 92.8844 68.4888 92.5507 68.2154 91.9957L67.1088 89.7495L67.9556 89.3324ZM69.1365 88.6882C69.4236 88.5468 69.6983 88.4709 69.9608 88.4605C70.2256 88.4549 70.4602 88.5088 70.6646 88.6221C70.8667 88.7425 71.0219 88.9128 71.1303 89.1329C71.2364 89.3482 71.2816 89.5667 71.266 89.7884C71.2456 90.0125 71.1429 90.2325 70.9579 90.4485C70.773 90.6644 70.4868 90.8679 70.0992 91.0588L68.9869 91.6068L68.6935 91.0111L69.7412 90.495C70.0474 90.3441 70.2284 90.1925 70.2842 90.0402C70.3423 89.8927 70.336 89.7471 70.2653 89.6036C70.1851 89.4409 70.0569 89.3436 69.8806 89.3115C69.7043 89.2795 69.5013 89.32 69.2717 89.4332C69.0516 89.5416 68.8802 89.6884 68.7574 89.8738C68.6299 90.0614 68.5762 90.2722 68.5963 90.5061L68.1804 90.0421C68.1558 89.7748 68.2252 89.5236 68.3888 89.2884C68.5476 89.0556 68.7969 88.8555 69.1365 88.6882Z" fill="white"/>
<path d="M64.8756 90.79L66.1751 94.8596L65.2225 95.1638L64.6944 93.51L62.6444 94.1646L63.1724 95.8184L62.2198 96.1226L60.9204 92.053L61.873 91.7488L62.3864 93.3568L64.4365 92.7022L63.923 91.0942L64.8756 90.79Z" fill="white"/>
<path d="M58.483 92.7465L59.1316 96.969L58.1432 97.1208L57.7157 94.3375L55.8106 97.4791L54.9091 97.6176L54.2605 93.3951L55.2489 93.2433L55.6765 96.0267L57.5737 92.8862L58.483 92.7465Z" fill="white"/>
<path d="M49.1317 93.673L49.1372 95.129L48.9925 94.9616L50.2725 94.9567C50.8592 94.9545 51.321 95.0754 51.6579 95.3195C51.9895 95.5689 52.1562 95.9283 52.158 96.3976C52.1599 96.8989 51.9853 97.2809 51.6343 97.5436C51.278 97.8063 50.8038 97.9387 50.2118 97.941L48.2518 97.9484L48.2357 93.6764L49.1317 93.673ZM52.2036 93.6614L51.0578 95.2977L50.0338 95.3016L51.1316 93.6654L52.2036 93.6614ZM49.1384 95.449L49.1456 97.369L49.0006 97.1055L50.1766 97.1011C50.486 97.0999 50.7257 97.0403 50.896 96.9224C51.0609 96.8097 51.1428 96.6254 51.1419 96.3694C51.1401 95.8894 50.8272 95.6506 50.2032 95.653L48.9952 95.6575L49.1384 95.449Z" fill="white"/>
</svg>
